<?xml version="1.0" encoding="utf-8"?>
<!-- Generator: Adobe Illustrator 21.0.0, SVG Export Plug-In . SVG Version: 6.00 Build 0)  -->
<svg version="1.1" id="Layer_1" xmlns="http://www.w3.org/2000/svg" xmlns:xlink="http://www.w3.org/1999/xlink" x="0px" y="0px"
	 viewBox="0 0 23.4 24.7" style="enable-background:new 0 0 23.4 24.7;" xml:space="preserve">
<style type="text/css">
	.st0{fill:#FFC627;}
</style>
<path class="st0" d="M22.6,10.5l-9.7-9.7c-1-1-2.6-1-3.6,0L9,1C8,2,8,3.6,9,4.6l4.9,4.9H2.8C1.2,9.6,0,10.8,0,12.3s1.2,2.8,2.8,2.8
	H14l-5,5c-1,1-1,2.6,0,3.6l0.3,0.3c1,1,2.6,1,3.6,0l9.7-9.7c0.5-0.5,0.8-1.2,0.7-1.9C23.4,11.7,23.2,11,22.6,10.5z"/>
</svg>
